<svg xmlns="http://www.w3.org/2000/svg" viewBox="0 0 32 32">
  <defs>
    <linearGradient id="grad-logo" x1="0" y1="0" x2="32" y2="32" gradientUnits="userSpaceOnUse">
      <stop offset="0%" stop-color="#6467f2" />
      <stop offset="100%" stop-color="#60a5fa" />
    </linearGradient>
  </defs>
  <rect width="32" height="32" rx="8" fill="url(#grad-logo)" />
  <path d="M16 6C16 6 16.7 13.3 16.7 13.3C16.7 13.3 24 14 24 14C24 14 16.7 14.7 16.7 14.7C16.7 14.7 16 22 16 22C16 22 15.3 14.7 15.3 14.7C15.3 14.7 8 14 8 14C8 14 15.3 13.3 15.3 13.3C15.3 13.3 16 6 16 6Z" fill="white" />
  <path d="M24.5 7C24.5 7 24.9 9.3 24.9 9.3C24.9 9.3 27 9.5 27 9.5C27 9.5 24.9 9.7 24.9 9.7C24.9 9.7 24.5 12 24.5 12C24.5 12 24.1 9.7 24.1 9.7C24.1 9.7 22 9.5 22 9.5C22 9.5 24.1 9.3 24.1 9.3C24.1 9.3 24.5 7 24.5 7Z" fill="white" opacity="0.6" />
</svg>
